<?xml version="1.0" encoding="utf-8"?>
<svg version="1.1" xmlns:cc="http://creativecommons.org/ns#" xmlns:dc="http://purl.org/dc/elements/1.1/" xmlns:rdf="http://www.w3.org/1999/02/22-rdf-syntax-ns#" xmlns="http://www.w3.org/2000/svg" xmlns:xlink="http://www.w3.org/1999/xlink" x="0px" y="0px" viewBox="0 0 1024 768" xml:space="preserve">
<path fill="#ffffff" d="m528.1 283.95c-8.95 0-16.69 5.89-23.21 17.68-6.43 11.8-11.32 25.91-14.69 42.33-3.26 16.43-4.9 31.06-4.9 43.91 0 3.26 0.14 6.36 0.4 9.33-1.51 0.05-2.87 0.78-4.09 2.2-4.84 5.79-8.69 10-11.53 12.64-2.84 2.52-5.26 3.78-7.26 3.78-1.27 0-2.32-0.47-3.16-1.42-0.74-0.94-1.11-2.21-1.11-3.79 0-4.73 1.21-13.16 3.64-25.27 1.57-8.32 2.36-13.58 2.36-15.79 0-3.69-2.58-5.53-7.74-5.53-2.42 0-4.73 0.21-6.94 0.63-0.53-2.31-1.22-3.89-2.06-4.74-0.73-0.94-2.26-1.42-4.58-1.42-7.26 0-14.16 2.32-20.69 6.95-6.42 4.53-11.58 10.58-15.48 18.17-2.19 4.21-3.75 8.59-4.71 13.11-1.23 0-2.16 0.1-2.78 0.31-8.53 1.68-16.64 3.58-24.33 5.69 1.16-8.22 2.32-16.33 3.48-24.33 1.26-8 2.42-15.79 3.47-23.37 1.9-12.64 3.95-26.8 6.16-42.49 0.11-0.74 0.16-1.74 0.16-3 0-7.37-3.68-11.06-11.05-11.06-3.58 0-6.32 1.01-8.22 3.01-1.89 1.89-3.1 5.16-3.63 9.79-2.11 18.43-5.58 34.01-10.42 46.75-4.74 12.74-10.11 22.27-16.11 28.59-5.9 6.21-11.69 9.31-17.38 9.31-4.74 0-8.05-1.15-9.95-3.47-1.89-2.32-2.84-6.16-2.84-11.53 0-2.11 0.32-4.74 0.95-7.9 0.63-3.26 1.58-7.52 2.84-12.79 2-8.84 3.48-16.11 4.42-21.8 1.06-5.79 1.58-11.42 1.58-16.89 0-7.59-1.84-13.33-5.53-17.22-3.58-3.9-8.58-5.85-15-5.85-14.43 0-27.01 7.38-37.75 22.12-2.95 4.1-4.42 7.79-4.42 11.05 0 1.79 0.53 3.42 1.58 4.9 1.16 1.37 2.47 2.05 3.95 2.05 1.79 0 3.42-1 4.89-3 4.64-6.21 9.01-10.79 13.11-13.74 4.21-3.05 7.85-4.58 10.9-4.58 3.9 0 5.85 2.53 5.85 7.58 0 3.37-0.43 7.21-1.27 11.53-0.74 4.32-1.89 10.11-3.47 17.37-1.79 8.01-3.11 14.38-3.95 19.12-0.84 4.63-1.27 8.89-1.27 12.79 0 8.74 2.37 15.9 7.11 21.48 4.74 5.47 11.64 8.21 20.69 8.21 9.48 0 18.06-3.21 25.75-9.63 7.68-6.43 14-16.17 18.95-29.22-0.63 4.21-1.16 7.58-1.58 10.11l-3.16 22.27c-20.11 6.63-35.11 14.26-45.01 22.9-9.9 8.63-14.85 18.48-14.85 29.53 0 6.64 2.37 12.06 7.11 16.27 4.84 4.32 11.63 6.47 20.37 6.47 13.16 0 24.12-5 32.85-15 8.85-9.9 14.75-25.22 17.69-45.96l0.48-3.79c9.26-2.21 18.69-4.21 28.27-6 0.22-0.04 0.42-0.12 0.63-0.17 0.75 5.13 2.56 9.45 5.44 12.96 3.9 4.74 9.11 7.11 15.64 7.11 8.32 0 15.22-4.42 20.69-13.27 1.47 4.11 3.63 7.37 6.48 9.79 2.94 2.32 6.16 3.48 9.63 3.48 4.53 0 9.21-1.84 14.06-5.53 4.84-3.69 9.42-8.21 13.74-13.58 0.48-0.56 0.9-1.18 1.26-1.85 0.94 2.99 2.04 5.78 3.38 8.32 4.52 8.43 11.42 12.64 20.69 12.64 6.74 0 12.74-1.79 18-5.37 5.37-3.58 10.32-8.16 14.85-13.74 0.46-0.53 0.86-1.12 1.21-1.75 0.93 2.95 2.02 5.71 3.34 8.22 4.53 8.43 11.43 12.64 20.69 12.64 6.74 0 12.74-1.79 18.01-5.37 3.54-2.36 6.9-5.17 10.07-8.4 0.95 2.47 2.22 4.7 3.84 6.66 3.89 4.74 9.11 7.11 15.63 7.11 8.32 0 15.22-4.42 20.69-13.27 1.48 4.11 3.64 7.37 6.48 9.79 2.95 2.32 6.16 3.48 9.63 3.48 4.53 0 9.22-1.84 14.06-5.53s9.42-8.21 13.74-13.58c2-2.32 3-5.58 3-9.8 0-2.21-0.42-3.94-1.26-5.21-0.74-1.26-1.79-1.89-3.16-1.89-1.58 0-3 0.73-4.26 2.21-4.85 5.79-8.69 10-11.53 12.64-2.85 2.52-5.27 3.78-7.27 3.78-1.26 0-2.32-0.47-3.16-1.42-0.73-0.94-1.1-2.21-1.1-3.79 0-4.73 1.21-13.16 3.63-25.27 1.58-8.32 2.37-13.58 2.37-15.79 0-3.69-2.58-5.53-7.74-5.53-2.42 0-4.74 0.21-6.95 0.63-0.53-2.31-1.21-3.89-2.05-4.74-0.74-0.94-2.27-1.42-4.58-1.42-7.27 0-14.17 2.32-20.69 6.95-6.43 4.53-11.59 10.58-15.48 18.17-2.73 5.24-4.49 10.72-5.3 16.42-4.8 5.65-8.79 9.73-11.93 12.16-3.26 2.42-7.05 3.63-11.37 3.63-2.74 0-4.95-0.89-6.63-2.68-1.69-1.89-2.9-5-3.64-9.32 11.9-16.21 21.33-32.59 28.27-49.12 6.95-16.53 10.43-31.06 10.43-43.59 0-8.74-1.47-15.42-4.42-20.06-2.85-4.74-6.79-7.1-11.85-7.1-8.95 0-16.69 5.89-23.22 17.68-6.42 11.8-11.32 25.91-14.69 42.33-3.26 16.43-4.89 31.06-4.89 43.91 0 3.26 0.14 6.38 0.4 9.35-1.48 0.08-2.82 0.79-4.01 2.18-5.05 6-9.21 10.26-12.48 12.79-3.26 2.42-7.05 3.63-11.37 3.63-2.73 0-4.95-0.89-6.63-2.68-1.69-1.89-2.9-5-3.63-9.32 11.89-16.21 21.32-32.59 28.27-49.12s10.42-31.06 10.42-43.59c0-8.74-1.47-15.42-4.42-20.06-2.84-4.74-6.79-7.1-11.85-7.1zm-3.47 15.63c2.95 0 4.42 4 4.42 12 0 10.22-2.21 21.54-6.63 33.96-4.42 12.32-10.37 24.64-17.85 36.96 0.21-11.9 1.47-24.32 3.79-37.27s5-23.8 8.06-32.54c3.05-8.74 5.79-13.11 8.21-13.11zm58.1 0c2.94 0 4.42 4 4.42 12 0 10.22-2.21 21.54-6.63 33.96-4.43 12.32-10.38 24.64-17.85 36.96 0.21-11.9 1.47-24.32 3.79-37.27 2.31-12.95 5-23.8 8.05-32.54 3.06-8.74 5.79-13.11 8.22-13.11zm185.25 28.31c-0.01 0.01-19.49 5.99-43.3 13.3-23.8 7.31-43.27 13.31-43.27 13.32 0.01 0.01 3.63 2.55 8.06 5.66 4.43 3.1 8.08 5.65 8.1 5.66 0.03 0.02 0.06 2.13 0.18 11.95 0.08 6.56 0.15 11.95 0.15 11.99 0.01 0.06 0.87-0.86 6-6.44 3.29-3.58 6.04-6.58 6.11-6.65l0.12-0.14 8.5 7.05c4.68 3.87 8.51 7.03 8.52 7.02s9.2-14.12 20.43-31.35 20.42-31.34 20.42-31.35-0.01-0.02-0.02-0.02zm-30.55 14.5c0.01 0-0.02 0.03-0.1 0.07-0.07 0.04-8.44 4.39-18.6 9.68-10.15 5.29-18.47 9.62-18.48 9.63-0.02 0-1.8-1.24-3.96-2.76l-3.93-2.76 2.88-0.89c1.59-0.49 11.72-3.61 22.52-6.93 10.79-3.32 19.64-6.04 19.67-6.04zm15.03 0.48s-0.01 0.02-0.02 0.03c-0.01 0.02-5.94 9.12-13.17 20.21s-13.17 20.18-13.18 20.2c-0.03 0.02-1.68-1.34-6.28-5.15-3.44-2.85-6.24-5.2-6.24-5.21 0.01-0.02 8.76-6.79 19.44-15.06 10.69-8.26 19.44-15.02 19.45-15.02zm-13.17 4c0.01 0-0.65 0.53-1.49 1.17-0.83 0.65-7.58 5.89-14.98 11.64l-13.46 10.46-3.39 3.67c-1.86 2.03-3.39 3.68-3.4 3.67 0-0.01-0.03-2.58-0.06-5.71-0.03-3.14-0.05-5.71-0.04-5.71 0-0.01 8.29-4.33 18.41-9.6s18.41-9.59 18.41-9.59zm-293.85 26.31l-5.84 29.06c-0.95 4.53-2.47 8.16-4.58 10.9s-4.32 4.11-6.64 4.11c-2.31 0-4.15-0.79-5.52-2.37-1.27-1.58-1.9-4-1.9-7.27 0-5.9 1.11-11.47 3.32-16.74 2.21-5.26 5.16-9.48 8.84-12.64 3.79-3.26 7.9-4.94 12.32-5.05zm195.58 0l-5.85 29.06c-0.94 4.53-2.47 8.16-4.58 10.9-2.1 2.74-4.31 4.11-6.63 4.11s-4.16-0.79-5.53-2.37c-1.26-1.58-1.89-4-1.89-7.27 0-5.9 1.1-11.47 3.31-16.74 2.21-5.26 5.16-9.48 8.85-12.64 3.79-3.26 7.9-4.94 12.32-5.05zm-289.31 52.28l-0.16 1.1c-3.68 27.59-12.84 41.39-27.48 41.39-3.37 0-6-1.01-7.89-3.01-1.79-1.89-2.69-4.31-2.69-7.26 0-12.64 12.74-23.38 38.22-32.22z" />
</svg>